# xmcd
#
# Track frame offsets:
#	187
#	51550
#	96422
#	120082
#	150657
#	231050
#	267912
#
# Disc length: 4146 seconds
#
# Revision: 1
# Processed by: cddbd v1.5.1PL0 Copyright (c) Steve Scherf et al.
# Submitted via: CDex 1.50Beta5
#
DISCID=55103007
DTITLE=安川 加壽子 - 安川加壽子の遺産
DYEAR=1900
DGENRE=Classical
TTITLE0=ピアノ協奏曲 野田輝行
TTITLE1=ヴァンサン・ダンディ交響曲第1番ト長調「フランスの山人の歌による交響曲」op25第一楽章
TTITLE2=第二楽章
TTITLE3=第三楽章
TTITLE4=ショパンピアノ協奏曲第1番ホ短調op11第一楽章
TTITLE5=第二楽章
TTITLE6=第三楽章
EXTD=
EXTT0=
EXTT1=
EXTT2=
EXTT3=
EXTT4=
EXTT5=
EXTT6=
PLAYORDER=
